<?xml version="1.0" standalone="no"?>
<!DOCTYPE svg PUBLIC "-//W3C//DTD SVG 20010904//EN"
 "http://www.w3.org/TR/2001/REC-SVG-20010904/DTD/svg10.dtd">
<svg version="1.0" xmlns="http://www.w3.org/2000/svg"
 width="1203.000000pt" height="660.000000pt" viewBox="0 0 1203.000000 660.000000"
 preserveAspectRatio="xMidYMid meet">
<metadata>
Created by potrace 1.10, written by Peter Selinger 2001-2011
</metadata>
<g transform="translate(0.000000,660.000000) scale(0.100000,-0.100000)"
fill="#cb1717" stroke="none">
<path d="M30 5320 l0 -1220 50 0 50 0 2 1168 3 1167 5881 3 5882 2 6 -22 c3
-13 6 -526 6 -1140 l0 -1118 60 0 60 0 0 1190 0 1190 -6000 0 -6000 0 0 -1220z"/>
<path d="M2205 5771 c-138 -37 -225 -144 -225 -276 0 -108 65 -209 167 -257
60 -29 190 -31 238 -5 17 9 33 17 37 17 10 0 48 33 48 42 0 3 -7 14 -16 22
-14 14 -20 13 -68 -14 -105 -59 -239 -27 -304 73 -24 37 -27 52 -27 122 0 70
3 85 27 122 65 100 199 132 304 73 48 -27 54 -28 68 -14 9 8 16 19 16 22 0 12
-36 39 -61 47 -13 4 -29 11 -34 16 -16 12 -135 19 -170 10z"/>
<path d="M3165 5774 c-11 -3 -34 -12 -52 -20 -17 -8 -35 -14 -40 -14 -19 0
-95 -84 -116 -129 -30 -64 -30 -168 0 -232 28 -59 86 -116 143 -142 118 -53
349 1 310 72 -12 24 -23 26 -42 8 -54 -54 -170 -63 -249 -20 -61 32 -91 72
-112 142 -15 50 -15 60 0 113 29 102 116 168 223 168 55 0 110 -19 138 -47 19
-18 30 -16 42 8 15 27 -1 46 -60 71 -45 19 -148 31 -185 22z"/>
<path d="M4115 5774 c-94 -24 -168 -78 -205 -150 -21 -41 -25 -63 -24 -134 0
-75 3 -91 28 -132 30 -52 79 -95 141 -124 53 -25 173 -26 233 -1 57 23 129 91
153 144 26 58 26 178 0 236 -22 47 -95 121 -132 132 -13 4 -29 12 -35 16 -14
11 -130 20 -159 13z m151 -73 c222 -107 150 -431 -96 -431 -86 0 -147 35 -198
115 -21 33 -25 52 -25 110 0 75 21 123 74 172 59 53 172 69 245 34z"/>
<path d="M4983 5773 c-16 -6 -18 -349 -3 -404 16 -56 51 -102 100 -129 59 -32
174 -35 234 -5 97 49 125 134 126 383 l0 152 -34 0 -34 0 -4 -197 c-3 -182 -5
-201 -24 -232 -33 -50 -75 -71 -143 -71 -73 0 -117 27 -148 90 -20 41 -22 60
-23 226 0 156 -2 183 -16 188 -9 3 -16 6 -17 5 -1 0 -8 -3 -14 -6z"/>
<path d="M6393 5773 c-10 -3 -13 -55 -13 -209 0 -112 -3 -204 -7 -204 -12 1
-48 33 -59 51 -10 18 -59 80 -109 139 -17 19 -48 58 -70 85 -22 28 -42 52 -45
55 -3 3 -19 22 -34 43 -21 28 -36 37 -57 37 l-29 0 0 -275 0 -275 35 0 35 0 0
194 c0 207 6 231 42 185 11 -13 31 -37 45 -54 13 -16 77 -96 141 -177 64 -81
123 -149 130 -152 6 -3 19 -3 27 0 13 5 15 46 15 279 0 240 -2 274 -16 279 -9
3 -16 6 -17 5 -1 0 -8 -3 -14 -6z"/>
<path d="M9213 5773 c-10 -3 -13 -55 -13 -209 0 -112 -3 -204 -7 -204 -12 1
-48 33 -59 51 -10 18 -59 80 -109 139 -17 19 -48 58 -70 85 -22 28 -42 52 -45
55 -3 3 -19 22 -34 43 -21 28 -36 37 -57 37 l-29 0 0 -275 0 -275 35 0 35 0 0
194 c0 207 6 231 42 185 11 -13 31 -37 45 -54 13 -16 77 -96 141 -177 64 -81
123 -149 130 -152 6 -3 19 -3 27 0 13 5 15 46 15 279 0 240 -2 274 -16 279 -9
3 -16 6 -17 5 -1 0 -8 -3 -14 -6z"/>
<path d="M9947 5772 l-218 -2 3 -23 c3 -20 9 -22 93 -27 l90 -5 3 -246 c2
-214 4 -248 18 -253 9 -3 23 -2 31 2 13 8 15 41 14 229 -1 129 2 230 8 246 10
27 12 27 100 27 74 0 90 3 95 17 13 34 -13 38 -237 35z"/>
<path d="M10755 5771 c-95 -26 -139 -74 -139 -150 0 -87 57 -128 229 -165 83
-18 124 -67 104 -124 -15 -44 -56 -62 -143 -62 -60 0 -87 5 -127 25 -55 26
-69 25 -69 -4 0 -24 15 -36 75 -57 100 -36 241 -20 294 34 48 47 54 118 16
169 -24 30 -97 73 -125 73 -16 0 -110 29 -138 43 -13 6 -33 24 -44 40 -17 24
-18 32 -8 58 22 51 58 69 143 69 46 0 85 -6 104 -15 35 -18 63 -11 63 15 0 36
-161 71 -235 51z"/>
<path d="M1230 5743 c-6 -15 -22 -50 -35 -78 -13 -27 -35 -76 -49 -107 -53
-118 -79 -175 -114 -248 -21 -41 -39 -79 -41 -83 -2 -5 14 -7 34 -5 34 3 39 7
58 54 38 88 30 85 199 82 168 -3 152 4 194 -93 10 -22 23 -43 28 -47 9 -6 44
-2 54 7 3 3 -18 50 -103 230 -13 28 -33 73 -45 100 -26 59 -78 174 -89 195 -5
8 -24 16 -45 18 -32 3 -37 0 -46 -25z m71 -83 c5 -8 18 -37 30 -65 12 -27 32
-74 46 -103 37 -78 33 -82 -95 -82 -125 0 -139 7 -117 55 7 17 29 65 49 108
20 44 36 85 36 94 0 19 40 14 51 -7z"/>
<path d="M6922 5748 c3 -22 9 -23 88 -26 52 -2 87 -8 92 -15 4 -7 8 -119 8
-249 l0 -238 35 0 35 0 2 248 3 247 90 5 c84 5 90 7 93 28 l3 22 -226 0 -226
0 3 -22z"/>
<path d="M7969 5703 c-17 -38 -42 -93 -56 -123 -14 -30 -32 -71 -40 -90 -9
-19 -28 -62 -43 -95 -51 -110 -70 -154 -70 -163 0 -13 27 -23 43 -16 13 5 47
67 47 87 1 7 9 22 19 35 18 21 26 22 170 22 l151 0 24 -52 c13 -29 26 -61 30
-70 4 -13 16 -18 41 -18 19 0 35 2 35 4 0 2 -11 26 -24 53 -23 45 -37 76 -102
221 -14 31 -36 80 -49 107 -13 28 -35 76 -49 108 -24 54 -28 57 -61 57 -34 0
-37 -3 -66 -67z m91 -35 c0 -5 6 -24 14 -41 8 -18 24 -54 36 -82 11 -27 28
-63 36 -78 27 -48 8 -57 -117 -57 -114 0 -129 6 -111 43 6 12 17 38 26 57 8
19 24 56 35 82 12 26 21 51 21 57 0 13 41 41 52 35 4 -3 8 -10 8 -16z"/>
<path d="M2430 4003 c-14 -3 -29 -8 -35 -13 -5 -4 -23 -10 -39 -14 -39 -10
-131 -71 -156 -105 -11 -14 -24 -31 -30 -38 -5 -7 -10 -16 -10 -20 0 -4 -8
-21 -17 -38 -13 -23 -17 -55 -17 -135 0 -80 4 -112 17 -135 9 -16 17 -34 17
-38 0 -14 87 -123 112 -140 13 -8 37 -27 53 -41 17 -14 35 -29 40 -34 6 -4 64
-43 130 -87 153 -100 272 -217 298 -291 41 -123 7 -239 -92 -302 -56 -37 -57
-37 -161 -36 -124 0 -170 17 -237 86 -37 38 -93 128 -93 149 0 4 -5 20 -12 36
-6 15 -21 75 -33 132 -35 174 -45 146 -47 -133 -1 -135 -2 -256 -2 -268 -1
-30 28 -31 32 -2 2 12 13 31 26 43 l23 22 84 -40 c109 -51 197 -71 312 -71
236 0 414 86 486 233 29 59 31 72 31 170 0 101 -1 108 -35 173 -48 91 -119
161 -270 263 -44 30 -120 82 -168 115 -110 75 -179 139 -206 191 -45 87 -36
200 21 270 88 106 286 101 401 -11 69 -67 127 -192 142 -301 6 -43 10 -53 26
-53 18 0 19 11 21 205 1 113 2 215 2 228 1 33 -26 27 -37 -8 -5 -16 -14 -36
-20 -43 -15 -19 -65 -10 -113 20 -89 55 -146 68 -287 67 -73 -1 -143 -4 -157
-6z"/>
<path d="M4995 4004 c-67 -16 -144 -53 -193 -92 -82 -65 -122 -155 -122 -272
0 -148 64 -253 225 -373 28 -20 55 -40 60 -45 6 -4 28 -19 50 -32 22 -13 45
-28 50 -32 6 -4 46 -34 91 -67 158 -117 206 -192 206 -322 1 -80 -8 -104 -61
-162 -51 -56 -96 -72 -206 -72 -82 0 -108 4 -145 21 -119 57 -202 202 -229
399 -12 81 -21 102 -40 91 -17 -11 -15 -536 2 -536 6 0 20 18 29 40 9 22 23
43 31 45 7 3 52 -12 99 -34 121 -57 204 -74 336 -68 109 5 195 18 228 35 11 5
37 18 58 28 114 55 176 136 202 261 15 70 15 83 0 150 -23 106 -85 198 -185
276 -53 42 -120 88 -295 208 -160 109 -211 170 -222 263 -14 118 26 201 119
246 58 28 168 27 233 -1 66 -30 148 -114 179 -186 14 -32 30 -65 34 -73 5 -9
14 -48 21 -88 9 -56 16 -72 29 -72 15 0 17 22 19 230 3 202 1 230 -13 230 -8
0 -15 -7 -15 -15 0 -31 -30 -75 -51 -75 -11 0 -64 21 -117 48 l-97 47 -145 2
c-80 1 -154 -1 -165 -3z"/>
<path d="M6445 4005 c-5 -1 -36 -11 -69 -20 -211 -63 -377 -223 -454 -440 -63
-174 -65 -420 -5 -595 50 -146 132 -260 238 -329 22 -14 42 -28 45 -31 11 -11
79 -40 135 -58 175 -56 341 -57 510 -5 236 73 404 259 471 523 36 141 23 409
-25 525 -49 117 -108 207 -175 268 -35 31 -131 97 -141 97 -4 0 -21 7 -38 15
-18 8 -52 21 -77 30 -53 19 -256 34 -247 18 4 -6 25 -13 48 -17 123 -20 243
-169 303 -376 70 -243 56 -619 -30 -817 -8 -17 -14 -33 -14 -36 0 -3 -16 -33
-36 -67 -42 -69 -124 -146 -166 -155 -15 -4 -30 -11 -33 -16 -4 -5 -33 -9 -65
-9 -191 0 -355 215 -402 525 -30 206 -5 526 52 660 77 181 162 274 268 291 68
11 59 24 -15 23 -37 0 -72 -2 -78 -4z"/>
<path d="M10670 4003 c-14 -3 -29 -8 -35 -13 -5 -4 -23 -10 -38 -14 -73 -17
-166 -102 -204 -185 -23 -50 -25 -63 -21 -165 5 -119 14 -145 72 -221 43 -55
69 -79 161 -147 44 -32 85 -62 90 -66 6 -4 28 -19 50 -32 22 -13 42 -26 45
-30 3 -3 25 -18 49 -35 65 -44 154 -138 180 -189 46 -93 37 -220 -21 -290 -50
-61 -106 -81 -223 -80 -88 0 -106 3 -151 26 -80 42 -132 109 -185 243 -17 44
-39 149 -39 190 0 43 -14 66 -30 49 -4 -5 -10 -127 -13 -271 -4 -253 -4 -263
14 -263 12 0 19 7 19 19 0 11 11 32 24 47 l23 28 69 -33 c38 -17 77 -36 86
-41 38 -21 155 -40 241 -40 242 0 420 86 494 239 25 50 27 67 28 161 0 96 -3
110 -29 164 -32 65 -123 168 -189 212 -23 16 -44 31 -47 34 -3 3 -32 23 -65
45 -33 22 -62 42 -65 45 -3 3 -44 31 -91 63 -162 108 -229 200 -229 311 0 30
4 57 9 60 5 3 12 18 15 32 4 15 22 41 39 58 49 48 98 66 178 66 86 0 154 -29
220 -93 68 -68 139 -226 139 -311 0 -29 4 -36 20 -36 19 0 20 7 20 153 0 85 3
189 7 232 6 72 5 77 -13 73 -12 -2 -21 -16 -27 -41 -13 -55 -41 -58 -135 -13
-43 21 -86 43 -97 49 -20 12 -296 20 -345 10z"/>
<path d="M1219 3980 c-9 -8 -27 -44 -40 -80 -13 -36 -29 -76 -36 -90 -7 -14
-13 -33 -13 -42 0 -9 -4 -19 -9 -22 -5 -3 -12 -18 -15 -33 -4 -16 -13 -41 -21
-58 -31 -68 -45 -104 -45 -117 0 -8 -4 -18 -8 -24 -4 -5 -18 -36 -31 -69 -39
-103 -53 -139 -62 -160 -5 -11 -25 -63 -44 -115 -20 -52 -42 -109 -50 -127 -8
-17 -15 -36 -15 -42 0 -6 -4 -19 -10 -29 -5 -9 -26 -60 -46 -112 -69 -182
-112 -256 -174 -295 -22 -14 -40 -30 -40 -35 0 -6 75 -10 200 -10 110 0 200 4
200 9 0 4 -28 16 -62 26 -109 30 -142 93 -114 211 17 68 64 204 95 276 l16 37
233 1 232 0 10 -27 c6 -16 14 -35 19 -43 5 -9 12 -30 15 -48 4 -17 12 -34 17
-37 5 -4 9 -13 9 -22 0 -8 6 -29 14 -46 22 -50 76 -211 76 -229 0 -28 -47 -67
-88 -74 -43 -7 -70 -20 -61 -29 4 -3 143 -6 310 -6 252 0 305 3 307 14 2 8
-11 20 -28 27 -49 20 -86 79 -135 215 -10 28 -22 54 -27 60 -4 5 -8 16 -8 25
0 8 -6 26 -13 40 -7 14 -24 54 -37 90 -12 36 -27 69 -32 75 -4 5 -8 16 -8 25
0 8 -7 28 -15 44 -8 15 -15 33 -15 40 0 6 -6 22 -13 36 -7 14 -24 54 -37 90
-12 36 -27 69 -32 74 -4 6 -8 17 -8 25 -1 9 -9 34 -20 56 -11 22 -19 47 -20
56 0 8 -4 19 -8 25 -5 5 -19 38 -32 74 -13 36 -27 69 -32 75 -4 5 -8 16 -8 25
0 8 -6 26 -13 40 -7 14 -21 48 -31 75 -10 28 -24 64 -31 80 -7 17 -17 42 -23
57 -10 23 -17 26 -68 30 -41 2 -63 -1 -75 -12z m-38 -400 c17 -47 42 -116 55
-155 13 -38 28 -77 33 -85 5 -9 12 -30 15 -48 4 -17 12 -34 17 -37 5 -4 9 -14
9 -23 0 -9 7 -30 15 -46 8 -15 15 -39 15 -52 l0 -24 -210 0 -210 0 0 25 c0 13
6 39 14 57 8 18 21 49 30 70 9 20 16 41 16 47 0 6 4 19 10 29 5 9 26 60 45
112 20 52 42 110 50 128 8 18 15 38 15 44 0 15 31 49 42 46 5 -2 23 -41 39
-88z"/>
<path d="M3300 3973 c0 -6 22 -14 49 -18 33 -4 56 -15 73 -32 l23 -25 0 -645
0 -645 -28 -24 c-15 -13 -46 -27 -67 -30 -37 -6 -70 -28 -53 -36 4 -1 265 -1
578 2 501 4 569 7 565 20 -2 8 -6 113 -8 233 -4 245 -14 276 -46 135 -11 -46
-22 -90 -26 -98 -4 -8 -18 -37 -31 -65 -27 -60 -91 -130 -139 -155 -52 -26
-130 -40 -228 -40 -116 0 -154 12 -176 53 -15 28 -17 65 -14 332 l3 300 69 3
c71 3 124 -15 172 -59 28 -26 76 -122 83 -168 4 -24 12 -37 25 -39 17 -4 18 1
12 43 -3 26 -6 157 -6 291 0 189 -3 244 -12 244 -7 0 -21 -26 -32 -58 -25 -77
-77 -156 -123 -186 -46 -30 -154 -46 -178 -26 -13 11 -15 57 -15 309 l0 297
28 33 28 34 140 -1 c116 0 147 -3 184 -20 103 -45 176 -160 197 -307 5 -40 26
-75 38 -64 6 7 12 407 6 416 -10 14 -1091 10 -1091 -4z"/>
<path d="M7530 3973 c0 -6 22 -14 49 -18 33 -4 56 -15 73 -32 l23 -25 0 -644
0 -643 -22 -22 c-11 -12 -43 -27 -70 -34 -26 -7 -48 -17 -48 -24 0 -6 3 -11 8
-11 4 0 142 0 307 0 178 0 300 4 300 9 0 5 -24 17 -54 25 -43 13 -58 23 -75
52 -20 33 -21 49 -21 318 0 206 3 285 12 294 15 15 119 16 170 2 21 -6 51 -22
67 -36 33 -27 73 -124 91 -219 11 -57 31 -165 50 -266 11 -59 40 -117 77 -150
60 -56 200 -75 311 -43 62 18 142 69 142 91 0 18 -10 16 -40 -7 -33 -26 -69
-25 -101 3 -36 30 -56 93 -90 277 -31 166 -80 243 -189 293 -37 17 -90 32
-123 35 -31 2 -60 9 -63 13 -7 11 63 45 108 52 55 8 161 64 204 106 50 50 78
96 98 163 59 205 -49 366 -289 428 -75 19 -113 20 -493 23 -306 1 -412 -1
-412 -10z m758 -49 c20 -15 43 -35 50 -44 51 -61 79 -218 62 -354 -17 -136
-59 -207 -145 -246 -44 -20 -186 -35 -229 -24 l-26 6 1 307 c0 273 2 309 18
336 28 47 55 57 149 52 71 -4 87 -9 120 -33z"/>
<path d="M8994 3981 c-11 -12 0 -19 39 -25 51 -8 69 -21 90 -63 15 -29 17 -94
17 -638 0 -587 -1 -607 -20 -645 -17 -34 -28 -42 -75 -55 -30 -9 -57 -21 -60
-26 -4 -5 216 -9 571 -9 l577 0 -7 38 c-3 20 -6 126 -6 235 0 182 -1 198 -17
195 -12 -2 -20 -18 -25 -48 -18 -100 -73 -234 -117 -284 -30 -36 -116 -83
-169 -95 -76 -16 -235 -14 -277 4 -21 8 -39 25 -45 41 -6 16 -9 142 -8 328 l3
301 45 3 c25 2 64 1 87 -3 81 -12 168 -117 187 -227 5 -30 12 -38 28 -38 18 0
20 4 14 38 -3 20 -6 151 -6 290 0 236 -1 253 -17 250 -11 -2 -22 -18 -28 -43
-16 -63 -63 -147 -103 -182 -50 -45 -171 -70 -200 -41 -9 9 -12 90 -12 303 0
159 3 300 6 312 13 46 46 56 193 55 127 0 140 -2 186 -26 48 -25 135 -109 135
-131 0 -5 6 -21 13 -35 7 -14 21 -59 31 -100 10 -41 20 -81 22 -87 2 -7 8 -13
14 -13 6 0 10 50 10 138 0 75 5 168 10 206 6 38 9 71 7 72 -5 6 -1088 10
-1093 5z"/>
<path d="M11908 1333 l-3 -1168 -5879 -3 c-4697 -2 -5881 0 -5888 10 -4 7 -8
520 -8 1141 l0 1127 -50 0 -50 0 -2 -1185 c-2 -652 -1 -1190 0 -1195 3 -7
2014 -10 6003 -10 l5999 0 0 1225 0 1225 -60 0 -60 0 -2 -1167z"/>
<path d="M3180 1392 c-16 -2 -35 -17 -50 -40 -14 -20 -29 -42 -35 -49 -20 -25
-31 -39 -59 -80 -37 -55 -44 -51 -132 71 -66 92 -70 95 -108 96 -29 0 -36 -3
-29 -12 68 -86 167 -227 175 -249 5 -13 -50 -100 -110 -174 -4 -5 -19 -26 -32
-45 -14 -19 -32 -40 -40 -47 -13 -11 -13 -14 0 -22 15 -10 63 -4 68 8 1 4 32
47 67 96 61 84 89 115 105 115 4 0 24 -25 46 -55 21 -31 46 -64 54 -74 8 -11
22 -29 30 -41 28 -42 35 -48 55 -54 11 -3 27 -1 35 4 14 9 7 23 -42 85 -56 70
-138 188 -138 198 0 8 41 69 91 137 50 67 87 125 82 129 -4 4 -19 5 -33 3z"/>
<path d="M4473 1391 c-9 -6 -18 -26 -57 -113 -32 -72 -71 -158 -101 -223 -12
-27 -32 -72 -44 -100 -12 -27 -28 -62 -36 -77 -19 -33 -19 -34 1 -42 18 -7 64
18 64 35 0 5 10 32 23 59 l22 50 158 -3 159 -2 27 -64 c27 -64 53 -87 86 -75
19 8 19 18 0 34 -8 7 -15 17 -15 22 0 9 -23 63 -65 153 -35 75 -81 176 -98
215 -57 130 -55 128 -86 132 -17 2 -34 2 -38 -1z m61 -123 c10 -24 27 -63 38
-88 11 -25 26 -60 34 -78 28 -60 20 -67 -86 -70 -100 -3 -140 2 -140 18 0 5
12 35 26 67 14 32 32 74 40 93 29 67 49 100 59 100 6 0 19 -19 29 -42z"/>
<path d="M6213 1387 c-3 -5 -1 -19 5 -30 6 -12 21 -44 33 -72 12 -27 32 -72
44 -100 13 -27 33 -72 45 -100 26 -62 31 -73 69 -158 17 -38 31 -72 31 -77 0
-27 79 -15 90 14 4 11 20 48 34 81 15 33 31 69 36 80 5 11 18 43 30 70 12 28
25 59 30 70 64 143 82 183 90 197 15 26 13 28 -24 28 -27 0 -36 -5 -42 -22 -4
-13 -20 -52 -36 -88 -36 -81 -42 -93 -68 -155 -56 -128 -85 -185 -95 -185 -12
0 -37 48 -95 185 -12 28 -25 59 -30 70 -5 11 -18 40 -28 65 -56 131 -54 128
-84 132 -16 3 -31 0 -35 -5z"/>
<path d="M7950 1394 c-60 -12 -110 -46 -133 -91 -21 -41 -21 -73 0 -118 26
-54 67 -74 217 -107 54 -12 116 -65 116 -98 0 -11 -16 -35 -35 -55 -35 -34
-37 -35 -118 -35 -66 1 -91 5 -132 25 -59 29 -61 30 -69 9 -17 -44 76 -86 194
-88 95 -1 136 13 182 61 33 35 46 105 26 143 -16 30 -83 77 -123 85 -16 4 -41
10 -55 15 -14 4 -43 13 -65 19 -58 15 -85 44 -85 89 0 43 5 51 42 75 36 23
147 23 206 0 37 -14 45 -14 53 -2 5 8 9 19 9 25 0 28 -161 61 -230 48z"/>
<path d="M8895 1394 c-11 -3 -34 -12 -52 -20 -17 -8 -34 -14 -37 -14 -7 0 -50
-36 -78 -65 -64 -65 -84 -206 -42 -295 52 -107 147 -165 274 -165 65 0 86 5
134 29 69 35 119 90 140 156 61 186 -60 362 -257 375 -34 2 -71 2 -82 -1z
m142 -66 c51 -22 98 -65 121 -111 28 -56 29 -145 3 -202 -52 -113 -200 -160
-312 -98 -61 33 -91 72 -112 143 -15 51 -15 60 0 110 21 72 47 106 108 141 55
32 140 39 192 17z"/>
<path d="M10820 1394 c-41 -8 -104 -40 -125 -64 -16 -17 -20 -36 -20 -85 0
-94 22 -113 190 -160 119 -33 153 -64 140 -126 -10 -46 -59 -69 -148 -69 -62
0 -84 5 -127 27 -43 22 -53 24 -61 12 -21 -33 -10 -46 66 -75 72 -28 195 -26
252 4 64 33 92 88 79 156 -11 55 -58 95 -136 114 -122 30 -144 38 -171 63 -39
37 -39 78 2 118 29 29 35 31 108 31 51 0 89 -5 110 -16 25 -13 35 -13 46 -4
24 20 17 35 -23 53 -40 18 -139 29 -182 21z"/>
<path d="M930 1365 c0 -25 1 -25 88 -25 55 0 92 -4 100 -12 9 -9 12 -78 12
-249 0 -201 2 -238 15 -243 43 -16 45 -6 47 253 l3 246 95 5 c89 5 95 6 98 28
l3 22 -230 0 -231 0 0 -25z"/>
<path d="M2010 1363 c-6 -15 -22 -50 -35 -78 -13 -27 -35 -76 -49 -107 -53
-118 -79 -175 -114 -248 -21 -41 -39 -79 -41 -83 -2 -5 14 -7 34 -5 34 3 39 7
58 54 38 88 30 85 199 82 168 -3 152 4 194 -93 10 -22 23 -43 28 -47 9 -6 44
-2 54 7 3 3 -18 50 -103 230 -13 28 -33 73 -45 100 -26 59 -78 174 -89 195 -5
8 -24 16 -45 18 -32 3 -37 0 -46 -25z m71 -83 c5 -8 18 -37 30 -65 12 -27 32
-74 46 -103 37 -78 33 -82 -95 -82 -125 0 -139 7 -117 55 7 17 29 65 49 108
20 44 36 85 36 94 0 19 40 14 51 -7z"/>
<path d="M5260 1115 l0 -275 148 0 c153 0 193 8 264 49 84 50 128 165 108 284
-10 65 -32 100 -92 151 -60 52 -121 66 -287 66 l-141 0 0 -275z m313 207 c99
-38 147 -105 147 -207 0 -72 -19 -117 -66 -159 -54 -48 -116 -66 -225 -66
l-96 0 -7 31 c-3 17 -6 105 -6 194 0 89 3 177 6 194 l7 31 96 0 c68 0 110 -5
144 -18z"/>
<path d="M7230 1115 l0 -275 35 0 35 0 0 275 0 275 -35 0 -35 0 0 -275z"/>
<path d="M9750 1115 l0 -275 35 0 34 0 3 83 3 82 90 3 91 3 57 -81 c60 -83 85
-104 111 -94 20 7 20 13 2 33 -33 39 -86 122 -92 145 -5 20 -2 26 10 26 20 0
74 53 86 85 13 34 13 116 0 149 -15 39 -61 81 -110 99 -35 13 -79 17 -183 17
l-137 0 0 -275z m300 205 c97 -49 108 -167 22 -229 -31 -21 -178 -39 -226 -27
l-26 6 0 129 c0 70 3 131 7 134 3 4 46 7 95 7 69 0 98 -4 128 -20z"/>
</g>
</svg>
